<mxfile host="app.diagrams.net" modified="2024-03-14T13:20:52.970Z" agent="Mozilla/5.0 (Macintosh; Intel Mac OS X 10_15_7) AppleWebKit/537.36 (KHTML, like Gecko) Chrome/122.0.0.0 Safari/537.36" etag="isCtvXfc17VdAbbPkisv" version="24.0.6" type="github">
  <diagram name="PaginÄƒ-1" id="4rOUrFuLQQxFFzWTjR8R">
    <mxGraphModel dx="940" dy="498" grid="1" gridSize="10" guides="1" tooltips="1" connect="1" arrows="1" fold="1" page="1" pageScale="1" pageWidth="827" pageHeight="1169" math="0" shadow="0">
      <root>
        <mxCell id="0" />
        <mxCell id="1" parent="0" />
        <mxCell id="w9p-DGaXQzyqEOsqdk-a-3" style="edgeStyle=orthogonalEdgeStyle;rounded=0;orthogonalLoop=1;jettySize=auto;html=1;exitX=0.5;exitY=1;exitDx=0;exitDy=0;" edge="1" parent="1" source="w9p-DGaXQzyqEOsqdk-a-1" target="w9p-DGaXQzyqEOsqdk-a-4">
          <mxGeometry relative="1" as="geometry">
            <mxPoint x="400" y="170" as="targetPoint" />
          </mxGeometry>
        </mxCell>
        <mxCell id="w9p-DGaXQzyqEOsqdk-a-1" value="LEAP YEAR" style="ellipse;whiteSpace=wrap;html=1;fillColor=#008a00;strokeColor=#005700;fontColor=#ffffff;" vertex="1" parent="1">
          <mxGeometry x="340" y="30" width="120" height="80" as="geometry" />
        </mxCell>
        <mxCell id="w9p-DGaXQzyqEOsqdk-a-5" style="edgeStyle=orthogonalEdgeStyle;rounded=0;orthogonalLoop=1;jettySize=auto;html=1;exitX=0;exitY=0.5;exitDx=0;exitDy=0;" edge="1" parent="1" source="w9p-DGaXQzyqEOsqdk-a-4" target="w9p-DGaXQzyqEOsqdk-a-6">
          <mxGeometry relative="1" as="geometry">
            <mxPoint x="240" y="220" as="targetPoint" />
          </mxGeometry>
        </mxCell>
        <mxCell id="w9p-DGaXQzyqEOsqdk-a-7" style="edgeStyle=orthogonalEdgeStyle;rounded=0;orthogonalLoop=1;jettySize=auto;html=1;exitX=1;exitY=0.5;exitDx=0;exitDy=0;" edge="1" parent="1" source="w9p-DGaXQzyqEOsqdk-a-4" target="w9p-DGaXQzyqEOsqdk-a-8">
          <mxGeometry relative="1" as="geometry">
            <mxPoint x="520" y="220" as="targetPoint" />
          </mxGeometry>
        </mxCell>
        <mxCell id="w9p-DGaXQzyqEOsqdk-a-4" value="The year is evenly divisible by 4?" style="ellipse;whiteSpace=wrap;html=1;fillColor=#fff2cc;strokeColor=#d6b656;gradientColor=#ffd966;" vertex="1" parent="1">
          <mxGeometry x="340" y="180" width="120" height="80" as="geometry" />
        </mxCell>
        <mxCell id="w9p-DGaXQzyqEOsqdk-a-9" style="edgeStyle=orthogonalEdgeStyle;rounded=0;orthogonalLoop=1;jettySize=auto;html=1;" edge="1" parent="1" source="w9p-DGaXQzyqEOsqdk-a-6">
          <mxGeometry relative="1" as="geometry">
            <mxPoint x="240" y="300" as="targetPoint" />
          </mxGeometry>
        </mxCell>
        <mxCell id="w9p-DGaXQzyqEOsqdk-a-6" value="No!&lt;div&gt;&lt;br&gt;&lt;/div&gt;" style="shape=hexagon;perimeter=hexagonPerimeter2;whiteSpace=wrap;html=1;fixedSize=1;fillColor=#e6d0de;strokeColor=#996185;gradientColor=#d5739d;" vertex="1" parent="1">
          <mxGeometry x="180" y="180" width="120" height="70" as="geometry" />
        </mxCell>
        <mxCell id="w9p-DGaXQzyqEOsqdk-a-11" style="edgeStyle=orthogonalEdgeStyle;rounded=0;orthogonalLoop=1;jettySize=auto;html=1;" edge="1" parent="1" source="w9p-DGaXQzyqEOsqdk-a-8" target="w9p-DGaXQzyqEOsqdk-a-12">
          <mxGeometry relative="1" as="geometry">
            <mxPoint x="570" y="300" as="targetPoint" />
          </mxGeometry>
        </mxCell>
        <mxCell id="w9p-DGaXQzyqEOsqdk-a-8" value="Yes!" style="shape=hexagon;perimeter=hexagonPerimeter2;whiteSpace=wrap;html=1;fixedSize=1;fillColor=#60a917;fontColor=#ffffff;strokeColor=#2D7600;" vertex="1" parent="1">
          <mxGeometry x="510" y="180" width="120" height="70" as="geometry" />
        </mxCell>
        <mxCell id="w9p-DGaXQzyqEOsqdk-a-10" value="Then is not a Leap Year!" style="shape=hexagon;perimeter=hexagonPerimeter2;whiteSpace=wrap;html=1;fixedSize=1;fillColor=#e6d0de;strokeColor=#996185;gradientColor=#d5739d;" vertex="1" parent="1">
          <mxGeometry x="180" y="300" width="120" height="80" as="geometry" />
        </mxCell>
        <mxCell id="w9p-DGaXQzyqEOsqdk-a-14" style="edgeStyle=orthogonalEdgeStyle;rounded=0;orthogonalLoop=1;jettySize=auto;html=1;" edge="1" parent="1" source="w9p-DGaXQzyqEOsqdk-a-12" target="w9p-DGaXQzyqEOsqdk-a-16">
          <mxGeometry relative="1" as="geometry">
            <mxPoint x="450" y="390" as="targetPoint" />
          </mxGeometry>
        </mxCell>
        <mxCell id="w9p-DGaXQzyqEOsqdk-a-12" value="&lt;div&gt;Then is a Leap Year!&lt;/div&gt;" style="shape=hexagon;perimeter=hexagonPerimeter2;whiteSpace=wrap;html=1;fixedSize=1;fillColor=#60a917;fontColor=#ffffff;strokeColor=#2D7600;" vertex="1" parent="1">
          <mxGeometry x="510" y="300" width="120" height="100" as="geometry" />
        </mxCell>
        <mxCell id="w9p-DGaXQzyqEOsqdk-a-13" style="edgeStyle=orthogonalEdgeStyle;rounded=0;orthogonalLoop=1;jettySize=auto;html=1;exitX=0.5;exitY=1;exitDx=0;exitDy=0;" edge="1" parent="1" source="w9p-DGaXQzyqEOsqdk-a-12" target="w9p-DGaXQzyqEOsqdk-a-12">
          <mxGeometry relative="1" as="geometry" />
        </mxCell>
        <mxCell id="w9p-DGaXQzyqEOsqdk-a-17" style="edgeStyle=orthogonalEdgeStyle;rounded=0;orthogonalLoop=1;jettySize=auto;html=1;" edge="1" parent="1" source="w9p-DGaXQzyqEOsqdk-a-16" target="w9p-DGaXQzyqEOsqdk-a-18">
          <mxGeometry relative="1" as="geometry">
            <mxPoint x="240" y="480" as="targetPoint" />
          </mxGeometry>
        </mxCell>
        <mxCell id="w9p-DGaXQzyqEOsqdk-a-21" style="edgeStyle=orthogonalEdgeStyle;rounded=0;orthogonalLoop=1;jettySize=auto;html=1;exitX=1;exitY=1;exitDx=0;exitDy=0;" edge="1" parent="1" source="w9p-DGaXQzyqEOsqdk-a-16" target="w9p-DGaXQzyqEOsqdk-a-22">
          <mxGeometry relative="1" as="geometry">
            <mxPoint x="590" y="520" as="targetPoint" />
          </mxGeometry>
        </mxCell>
        <mxCell id="w9p-DGaXQzyqEOsqdk-a-16" value="The year is evenly divisible by 100?" style="ellipse;whiteSpace=wrap;html=1;fillColor=#fff2cc;strokeColor=#d6b656;gradientColor=#ffd966;" vertex="1" parent="1">
          <mxGeometry x="340" y="400" width="120" height="80" as="geometry" />
        </mxCell>
        <mxCell id="w9p-DGaXQzyqEOsqdk-a-19" style="edgeStyle=orthogonalEdgeStyle;rounded=0;orthogonalLoop=1;jettySize=auto;html=1;" edge="1" parent="1" source="w9p-DGaXQzyqEOsqdk-a-18">
          <mxGeometry relative="1" as="geometry">
            <mxPoint x="240" y="580" as="targetPoint" />
          </mxGeometry>
        </mxCell>
        <mxCell id="w9p-DGaXQzyqEOsqdk-a-18" value="Yes!" style="shape=hexagon;perimeter=hexagonPerimeter2;whiteSpace=wrap;html=1;fixedSize=1;fillColor=#f8cecc;strokeColor=#b85450;gradientColor=#ea6b66;" vertex="1" parent="1">
          <mxGeometry x="140" y="460" width="120" height="90" as="geometry" />
        </mxCell>
        <mxCell id="w9p-DGaXQzyqEOsqdk-a-34" style="edgeStyle=orthogonalEdgeStyle;rounded=0;orthogonalLoop=1;jettySize=auto;html=1;exitX=0;exitY=0.5;exitDx=0;exitDy=0;" edge="1" parent="1">
          <mxGeometry relative="1" as="geometry">
            <mxPoint x="170" y="620" as="targetPoint" />
            <mxPoint x="180" y="620" as="sourcePoint" />
          </mxGeometry>
        </mxCell>
        <mxCell id="w9p-DGaXQzyqEOsqdk-a-23" style="edgeStyle=orthogonalEdgeStyle;rounded=0;orthogonalLoop=1;jettySize=auto;html=1;" edge="1" parent="1" source="w9p-DGaXQzyqEOsqdk-a-22" target="w9p-DGaXQzyqEOsqdk-a-24">
          <mxGeometry relative="1" as="geometry">
            <mxPoint x="590" y="610" as="targetPoint" />
          </mxGeometry>
        </mxCell>
        <mxCell id="w9p-DGaXQzyqEOsqdk-a-22" value="No!" style="shape=hexagon;perimeter=hexagonPerimeter2;whiteSpace=wrap;html=1;fixedSize=1;fillColor=#d5e8d4;strokeColor=#82b366;gradientColor=#97d077;" vertex="1" parent="1">
          <mxGeometry x="530" y="460" width="120" height="90" as="geometry" />
        </mxCell>
        <mxCell id="w9p-DGaXQzyqEOsqdk-a-25" style="edgeStyle=orthogonalEdgeStyle;rounded=0;orthogonalLoop=1;jettySize=auto;html=1;" edge="1" parent="1" source="w9p-DGaXQzyqEOsqdk-a-24" target="w9p-DGaXQzyqEOsqdk-a-26">
          <mxGeometry relative="1" as="geometry">
            <mxPoint x="460" y="670" as="targetPoint" />
          </mxGeometry>
        </mxCell>
        <mxCell id="w9p-DGaXQzyqEOsqdk-a-24" value="Then is a Leap Year!" style="shape=hexagon;perimeter=hexagonPerimeter2;whiteSpace=wrap;html=1;fixedSize=1;fillColor=#d5e8d4;strokeColor=#82b366;gradientColor=#97d077;" vertex="1" parent="1">
          <mxGeometry x="530" y="600" width="120" height="90" as="geometry" />
        </mxCell>
        <mxCell id="w9p-DGaXQzyqEOsqdk-a-27" style="edgeStyle=orthogonalEdgeStyle;rounded=0;orthogonalLoop=1;jettySize=auto;html=1;" edge="1" parent="1" source="w9p-DGaXQzyqEOsqdk-a-26" target="w9p-DGaXQzyqEOsqdk-a-28">
          <mxGeometry relative="1" as="geometry">
            <mxPoint x="520" y="780" as="targetPoint" />
          </mxGeometry>
        </mxCell>
        <mxCell id="w9p-DGaXQzyqEOsqdk-a-29" style="edgeStyle=orthogonalEdgeStyle;rounded=0;orthogonalLoop=1;jettySize=auto;html=1;" edge="1" parent="1" source="w9p-DGaXQzyqEOsqdk-a-26" target="w9p-DGaXQzyqEOsqdk-a-30">
          <mxGeometry relative="1" as="geometry">
            <mxPoint x="260" y="760" as="targetPoint" />
          </mxGeometry>
        </mxCell>
        <mxCell id="w9p-DGaXQzyqEOsqdk-a-26" value="The year is evenly divisible by 400?" style="ellipse;whiteSpace=wrap;html=1;fillColor=#fff2cc;strokeColor=#d6b656;gradientColor=#ffd966;" vertex="1" parent="1">
          <mxGeometry x="340" y="720" width="120" height="80" as="geometry" />
        </mxCell>
        <mxCell id="w9p-DGaXQzyqEOsqdk-a-35" style="edgeStyle=orthogonalEdgeStyle;rounded=0;orthogonalLoop=1;jettySize=auto;html=1;" edge="1" parent="1" source="w9p-DGaXQzyqEOsqdk-a-28" target="w9p-DGaXQzyqEOsqdk-a-36">
          <mxGeometry relative="1" as="geometry">
            <mxPoint x="590" y="880" as="targetPoint" />
          </mxGeometry>
        </mxCell>
        <mxCell id="w9p-DGaXQzyqEOsqdk-a-28" value="Yes!" style="shape=hexagon;perimeter=hexagonPerimeter2;whiteSpace=wrap;html=1;fixedSize=1;fillColor=#60a917;strokeColor=#2D7600;fontColor=#ffffff;" vertex="1" parent="1">
          <mxGeometry x="530" y="760" width="120" height="80" as="geometry" />
        </mxCell>
        <mxCell id="w9p-DGaXQzyqEOsqdk-a-31" style="edgeStyle=orthogonalEdgeStyle;rounded=0;orthogonalLoop=1;jettySize=auto;html=1;" edge="1" parent="1" source="w9p-DGaXQzyqEOsqdk-a-30">
          <mxGeometry relative="1" as="geometry">
            <mxPoint x="240" y="830" as="targetPoint" />
            <Array as="points">
              <mxPoint x="240" y="815" />
              <mxPoint x="241" y="815" />
            </Array>
          </mxGeometry>
        </mxCell>
        <mxCell id="w9p-DGaXQzyqEOsqdk-a-38" style="edgeStyle=orthogonalEdgeStyle;rounded=0;orthogonalLoop=1;jettySize=auto;html=1;entryX=0.5;entryY=0;entryDx=0;entryDy=0;" edge="1" parent="1" source="w9p-DGaXQzyqEOsqdk-a-30" target="w9p-DGaXQzyqEOsqdk-a-32">
          <mxGeometry relative="1" as="geometry" />
        </mxCell>
        <mxCell id="w9p-DGaXQzyqEOsqdk-a-30" value="No!" style="shape=hexagon;perimeter=hexagonPerimeter2;whiteSpace=wrap;html=1;fixedSize=1;fillColor=#f8cecc;strokeColor=#b85450;" vertex="1" parent="1">
          <mxGeometry x="150" y="760" width="120" height="80" as="geometry" />
        </mxCell>
        <mxCell id="w9p-DGaXQzyqEOsqdk-a-32" value="Then is not a Leap Year!" style="shape=hexagon;perimeter=hexagonPerimeter2;whiteSpace=wrap;html=1;fixedSize=1;fillColor=#f8cecc;strokeColor=#b85450;" vertex="1" parent="1">
          <mxGeometry x="150" y="890" width="120" height="80" as="geometry" />
        </mxCell>
        <mxCell id="w9p-DGaXQzyqEOsqdk-a-36" value="Then is a Leap Year!" style="shape=hexagon;perimeter=hexagonPerimeter2;whiteSpace=wrap;html=1;fixedSize=1;fillColor=#60a917;strokeColor=#2D7600;fontColor=#ffffff;" vertex="1" parent="1">
          <mxGeometry x="530" y="890" width="120" height="80" as="geometry" />
        </mxCell>
        <mxCell id="w9p-DGaXQzyqEOsqdk-a-37" value="Then is not a Leap Year!" style="shape=hexagon;perimeter=hexagonPerimeter2;whiteSpace=wrap;html=1;fixedSize=1;fillColor=#f8cecc;strokeColor=#b85450;gradientColor=#ea6b66;" vertex="1" parent="1">
          <mxGeometry x="140" y="600" width="120" height="80" as="geometry" />
        </mxCell>
      </root>
    </mxGraphModel>
  </diagram>
</mxfile>
